<mxfile host="app.diagrams.net" modified="2023-07-10T02:17:18.671Z" agent="Mozilla/5.0 (Windows NT 10.0; Win64; x64) AppleWebKit/537.36 (KHTML, like Gecko) Chrome/114.0.0.0 Safari/537.36" version="21.6.1" etag="ojZkdBcOnc4d2bh6SL7k" type="github">
  <diagram name="페이지-1" id="BVyan7K_KhHi0l22jlN2">
    <mxGraphModel>
      <root>
        <mxCell id="0" />
        <mxCell id="1" parent="0" />
      </root>
    </mxGraphModel>
  </diagram>
</mxfile>
